# xmcd CD database file
#
# Track frame offsets:
#	150
#	24340
#	44687
#	65542
#	84220
#	101812
#	119022
#	141547
#	166630
#	185977
#	213922
#
# Disc length: 3071 seconds
#
# Revision: 0
# Processed by: cddbd v1.5.1PL0 Copyright (c) Steve Scherf et al.
# Submitted via: CDex 1.60beta1
#
DISCID=a00bfd0b
DTITLE=Sha-Shaty - Voices In My Head
DYEAR=0
DGENRE=Jazz
TTITLE0=Dear Beloved
TTITLE1=Latino
TTITLE2=Surrender
TTITLE3=Lucky Charm
TTITLE4=Manana
TTITLE5=Don't Leave Me This Way
TTITLE6=The Rescue
TTITLE7=4 Play
TTITLE8=Stranded In Paradise
TTITLE9=Lateshow
TTITLE10=Samba Pa Ti
EXTD=YEAR: 0
EXTT0=
EXTT1=
EXTT2=
EXTT3=
EXTT4=
EXTT5=
EXTT6=
EXTT7=
EXTT8=
EXTT9=
EXTT10=
PLAYORDER=
